<svg xmlns="http://www.w3.org/2000/svg" xmlns:xlink="http://www.w3.org/1999/xlink" xmlns:inkscape="http://www.inkscape.org/namespaces/inkscape" version="1.1" width="500" height="546" viewBox="0 0 500 546">
<defs>
<clipPath id="clip_1">
<path transform="matrix(1,0,0,-1,0,546)" d="M0 546H500V0H0Z"/>
</clipPath>
</defs>
<g inkscape:groupmode="layer" inkscape:label="Layer 2">
</g>
<g inkscape:groupmode="layer" inkscape:label="Layer 1">
<path transform="matrix(1,0,0,-1,249.9209,416.84339)" d="M0 0-53.333 18.627-110.857 26.999-152.667 45.333-188.333 78.333-209 115.619-216 135.166-190 162.999-168.333 193.666-161.667 225.666-183.333 283-184.778 332.666-158.917 353.333-116.5 346.666-86.252 323.333-61.88 291.727-44 281-.333 280.666H.492L44.158 281 62.039 291.727 86.41 323.333 116.658 346.666 159.075 353.333 184.936 332.666 183.492 283 161.825 225.666 168.492 193.666 190.158 162.999 216.158 135.166 209.158 115.619 188.492 78.333 152.825 45.333 111.015 26.999 53.492 18.627 .158 0Z" fill="#ffffff"/>
<g clip-path="url(#clip_1)">
<path transform="matrix(1,0,0,-1,249.9209,193.95499)" d="M0 0-31-18.222-25.222-34.471C-37.493-22.46-52.536-12.274-72.111-11.778-68.487-13.265-66.221-15.466-65.222-18.333-95.423-11.94-121.641-10.812-136.444-24.778-130.019-21.826-123.03-22.326-115.667-25.111-141-32.111-144.444-41.889-171.556-44.111-174.02-46.823-173.702-49.467-169.444-51.333-173.315-54.418-176.914-56.779-180-57.778L-164.111-8.778-162.556 5.889-180 44.889-184.778 96.667-171.222 123.444-147.667 130.444-101.111 114.889-58.111 64.414-35.889 55.111 0 55H.158L36.047 55.111 58.269 64.414 101.269 114.889 147.825 130.444 171.38 123.444 184.936 96.667 180.158 44.889 162.714 5.889 164.269-8.778 180.158-57.778C177.072-56.779 173.474-54.418 169.603-51.333 173.86-49.467 174.178-46.823 171.714-44.111 144.603-41.889 141.158-32.111 115.825-25.111 123.188-22.326 130.177-21.826 136.603-24.778 121.8-10.812 95.581-11.94 65.38-18.333 66.379-15.466 68.645-13.265 72.269-11.778 52.694-12.274 37.651-22.46 25.38-34.471L31.158-18.222 .158 0Z" fill="#a3a3a3"/>
<path transform="matrix(1,0,0,-1,357.3291,174.5939)" d="M0 0C-6.909 14.578-1.21 29.93 19.5 34.917 19.5 34.917 11 36.583 10.75 36.583 10.5 36.583-10.417 28.333-10.417 28.333-7.205 44.528 6.31 55.116 27.833 54.833L16.897 59.417 6.181 60.013C7.024 66.622 14.309 73.943 37.333 75.917L23.833 79.833C27.083 84.06 33.594 88.382 51.667 90.333L45 92.25 19.417 88.167 .833 71.167-14.75 47.083-16.5 21.083-8.917 6Z" fill="#808080"/>
<path transform="matrix(1,0,0,-1,362.8569,178.95499)" d="M0 0C-29.431 9.019-36.222 34.667-16 68-2.333 91.556 26.333 107.222 50.333 94 32.346 96.03 20.637 92.531 13 85.444 23.317 85.737 30.7 83.795 34.778 79.333 14.191 81.806 1.516 77.19-3.444 65.667 9.492 67.073 18.938 64.22 25.444 57.778 13.008 60.107 2.549 60.661-6.987 53.981-10.393 51.595-12.703 47.957-13.366 43.852-13.776 41.318-14.013 38.434-14.556 35.222-2.712 43.347 7.749 45.237 16.333 38.667 1.117 39.323-8.478 33.933-10.897 20.825-11.512 17.494-10.996 14.042-9.311 11.104-7.336 7.658-4.269 3.965 0 0" fill="#231f20"/>
<path transform="matrix(1,0,0,-1,320.6624,265.5105)" d="M0 0C5.083-5.083 4.167-13.583-1.917-17.917-8.083-21.667-16.667-20.583-21.167-12.583-24.096-14.842-28.919-15.721-35.25-15.5-22.083-10.833-13.417 4.917-.75 4.917 4.936 4.933 9.356 2.699 12.25-2.25 8.853 .069 5.005 1.356 0 0M84.417-57.333C90.417-49.583 96.357-37.985 96.167-23.917 91.558-27.506 85.498-26.635 77.917-21.083 82.206-18.793 85.849-15.971 86.583-10.75 76.921-16.227 67.054-13.021 56.917 1.583 61.969 1.994 65.688 3.317 67.417 6 52.417 4.833 52.417 20.333 18.833 29.917 22.655 31.611 27.427 32 34 29.917 24.5 43-20.167 38-27.333 16.333-28.5 19.917-26.583 26.75-18.417 32.917-37.123 29.593-51.431 16.107-56.417-18.917L-64.417-22.5-64.833-33.583-59.25-32.083C-10.583-34 25.861-83.111 5.861-108 42.306-112.889 86.417-81.889 93.306-51.778 90.538-54.784 87.451-56.832 84.417-57.333" fill="#231f20"/>
<path transform="matrix(1,0,0,-1,311.968,139.6217)" d="M0 0C.113-11.352 6.655-19.107 18-23.444-3.889 11.278 28.861 62.611 97.944 69.278L95.278 74.944 54.611 69.444 20.278 40.611-.008 11.778Z" fill="#808080"/>
<path transform="matrix(1,0,0,-1,142.6709,174.5939)" d="M0 0C6.909 14.578 1.21 29.93-19.5 34.917-19.5 34.917-11 36.583-10.75 36.583-10.5 36.583 10.417 28.333 10.417 28.333 7.205 44.528-6.31 55.116-27.833 54.833L-16.897 59.417-6.181 60.013C-7.024 66.622-14.309 73.943-37.333 75.917L-23.833 79.833C-27.083 84.06-33.594 88.382-51.667 90.333L-45 92.25-19.417 88.167-.833 71.167 14.75 47.083 16.5 21.083 8.917 6Z" fill="#808080"/>
<path transform="matrix(1,0,0,-1,137.1431,178.95499)" d="M0 0C29.431 9.019 36.222 34.667 16 68 2.333 91.556-26.333 107.222-50.333 94-32.346 96.03-20.637 92.531-13 85.444-23.317 85.737-30.7 83.795-34.778 79.333-14.191 81.806-1.516 77.19 3.444 65.667-9.492 67.073-18.938 64.22-25.444 57.778-13.008 60.107-2.549 60.661 6.987 53.981 10.393 51.595 12.703 47.957 13.366 43.852 13.776 41.318 14.013 38.434 14.556 35.222 2.712 43.347-7.749 45.237-16.333 38.667-1.117 39.323 8.478 33.933 10.897 20.825 11.512 17.494 10.996 14.042 9.311 11.104 7.336 7.658 4.269 3.965 0 0" fill="#231f20"/>
<path transform="matrix(1,0,0,-1,167.0876,267.7605)" d="M0 0C2.894 4.949 7.314 7.183 13 7.167 25.667 7.167 34.333-8.583 47.5-13.25 41.169-13.471 36.346-12.592 33.417-10.333 28.917-18.333 20.333-19.417 14.167-15.667 8.083-11.333 7.167-2.833 12.25 2.25 7.245 3.606 3.397 2.319 0 0M-81.056-49.528C-74.167-79.639-30.056-110.639 6.389-105.75-13.611-80.861 22.833-31.75 71.5-29.833L77.083-31.333 76.667-20.25 68.667-16.667C63.681 18.357 49.373 31.843 30.667 35.167 38.833 29 40.75 22.167 39.583 18.583 32.417 40.25-12.25 45.25-21.75 32.167-15.177 34.25-10.405 33.861-6.583 32.167-40.167 22.583-40.167 7.083-55.167 8.25-53.438 5.567-49.719 4.244-44.667 3.833-54.804-10.771-64.671-13.977-74.333-8.5-73.599-13.721-69.956-16.543-65.667-18.833-73.248-24.385-79.308-25.256-83.917-21.667-84.107-35.735-78.167-47.333-72.167-55.083-75.201-54.582-78.288-52.534-81.056-49.528" fill="#231f20"/>
<path transform="matrix(1,0,0,-1,249.9209,159.95499)" d="M0 0C-4.778-14.778-18.778-19.556-21.333-39.222-32.129-30.957-53.778-31.667-67.222-40.444-46.379-46.833-32.618-57.999-23.556-72.333-21.58-67.615-22.846-62.154-26.167-56.222-10.92-68.182-9.786-96.269-17.433-134.389-17.835-136.396-17.841-138.47-17.397-140.468-12.049-164.536-16.587-181.327-28-193.056L0-193.472H.158L28.158-193.056C16.745-181.327 12.207-164.536 17.555-140.468 17.999-138.47 17.994-136.396 17.591-134.389 9.944-96.269 11.078-68.182 26.325-56.222 23.004-62.154 21.739-67.615 23.714-72.333 32.776-57.999 46.537-46.833 67.38-40.444 53.936-31.667 32.287-30.957 21.492-39.222 18.936-19.556 4.936-14.778 .158 0Z" fill="#404040"/>
<path transform="matrix(1,0,0,-1,249.9209,340.8439)" d="M0 0C-19.146 0-35.167-7-35.167-22.5-35.167-38-19.146-45 0-45H.158C19.304-45 35.325-38 35.325-22.5 35.325-7 19.304 0 .158 0Z" fill="#231f20"/>
<path transform="matrix(1,0,0,-1,188.032,139.6217)" d="M0 0C-.113-11.352-6.655-19.107-18-23.444 3.889 11.278-28.861 62.611-97.944 69.278L-95.278 74.944-54.611 69.444-20.278 40.611 .008 11.778Z" fill="#808080"/>
<path transform="matrix(1,0,0,-1,250.3738,400.1033)" d="M0 0C-5.623 0-11.343 .26-17.124 .779-17.949 .854-18.558 1.583-18.483 2.407-18.409 3.233-17.677 3.838-16.855 3.768-5.478 2.745 5.663 2.745 16.255 3.767 17.08 3.847 17.813 3.243 17.893 2.418 17.972 1.593 17.369 .86 16.544 .78 11.154 .261 5.625 0 0 0" fill="#231f20"/>
<path transform="matrix(1,0,0,-1,409.1624,356.3438)" d="M0 0C-23.597-19.57-46.75-28.167-76.083-29.417-92.5-29.333-104.067-32.947-114.083-38.083-114.083-38.083-125.5-44.667-134.417-48.25-142.583-52.75-159.083-53.25-159.083-53.25H-159.242C-159.242-53.25-175.742-52.75-183.908-48.25-192.825-44.667-204.242-38.083-204.242-38.083-214.258-32.947-225.825-29.333-242.242-29.417-271.575-28.167-294.728-19.57-318.325 0-340.939 20.18-358.936 43.523-367.492 73.333-334.696 99.863-317.641 130.717-313.075 165-332.742 202.667-351.51 260.511-327.242 281-286.575 304.82-206.63 237.667-233.13 196.167-225.186 200-218.556 207.039-214.186 215.5-198.232 213.257-179.602 212.58-159.242 212.917H-159.083C-138.722 212.58-120.093 213.257-104.139 215.5-99.769 207.039-93.139 200-85.194 196.167-111.694 237.667-31.75 304.82 8.917 281 33.185 260.511 14.417 202.667-5.25 165-.684 130.717 16.371 99.863 49.167 73.333 40.612 43.523 22.614 20.18 0 0M51.417 42.833C53.456 56.457 70.583 66.75 70.583 79.5 62.487 78.171 52.976 84.603 42.667 95.417 46.776 96.702 50.431 99.243 53.917 102.25 38.49 102.972 25.838 110.621 17.75 129.667 21.126 129.632 24.516 130.476 27.917 131.917 13.678 140.376 6.673 151.218 7.583 164.667 22.477 191.788 30.855 220.088 32.472 249.611 32.139 287.944 5.028 299.944-20.75 297.278-40.371 294.916-59.979 281.431-79.583 264.167-90.667 254.5-91.763 246.577-98.267 240.601-108.591 231.114-119.611 226.373-131.333 226.417L-159.083 226.5H-159.242L-186.992 226.417C-198.713 226.373-209.734 231.114-220.058 240.601-226.562 246.577-227.658 254.5-238.742 264.167-258.346 281.431-277.954 294.916-297.575 297.278-323.353 299.944-350.464 287.944-350.797 249.611-349.18 220.088-340.802 191.788-325.908 164.667-324.998 151.218-332.003 140.376-346.242 131.917-342.841 130.476-339.451 129.632-336.075 129.667-344.163 110.621-356.815 102.972-372.242 102.25-368.755 99.243-365.1 96.702-360.992 95.417-371.301 84.603-380.812 78.171-388.908 79.5-388.908 66.75-371.781 56.457-369.742 42.833-373.585 41.839-377.416 42.858-381.242 44.75-375.408 29.5-355.242 19.583-345.825 7.583-351.036 5.73-355.656 3.762-357.075 1.167-332.242-.5-321.075-19.083-302.158-27.25-305.257-29.213-308.974-30.058-313.742-29-299.575-39.722-272.57-40.389-252.242-40.722-191.13-41.167-203.242-65.722-159.242-65.056H-159.083C-115.083-65.722-127.194-41.167-66.083-40.722-45.755-40.389-18.75-39.722-4.583-29-9.35-30.058-13.067-29.213-16.167-27.25 2.75-19.083 13.917-.5 38.75 1.167 37.331 3.762 32.711 5.73 27.5 7.583 36.917 19.583 57.083 29.5 62.917 44.75 59.091 42.858 55.26 41.839 51.417 42.833" fill="#231f20"/>
<path transform="matrix(1,0,0,-1,376.3274,419.7441)" d="M0 0C3.939 2.818 8.481 5.481 13.112 3.49 15.631 2.407 17.332-1.345 18.685-4.229 22.321-11.983 25.531-19.936 28.998-27.772 30.183-30.45 30.319-32.547 27.601-34.545 20.026-40.112 11.565-41.949 3.864-34.824 1.294-32.447-1.616-30.438-4.92-28.657-3.799-31.929-2.671-35.198-1.562-38.473-1.106-39.818-.555-41.152-.293-42.537 .134-44.793-.406-46.418-3.134-46.83-6.708-47.371-10.215-48.485-13.797-48.769-15.05-48.869-17.22-47.518-17.638-46.352-19.909-40.014-21.794-33.536-23.747-27.086-24.803-23.6-25.548-20.01-26.761-16.582-28.333-12.137-26.41-8.498-21.824-6.781-14.594-4.074-8.451-5.271-2.986-10.771-.86-12.911 1.684-14.636 4.662-16.123 3.725-13.641 2.787-11.159 1.718-8.434" fill="#2b2b2b"/>
<path transform="matrix(1,0,0,-1,378.0458,428.1781)" d="M0 0C-.872 2.238-1.715 4.203-2.294 6.243-2.477 6.889-2.207 8.085-1.718 8.434" fill="#2b2b2b"/>
<path transform="matrix(1,0,0,-1,370.516,456.1198)" d="M0 0C-1.88 5.23-3.76 10.461-5.971 16.611-4.408 16.347-2.991 16.529-2.211 15.909 2.884 11.858 7.799 7.58 12.856 3.479 19.129-1.609 26.831-.728 32.262 5.683 28.534 14.186 24.82 22.762 21.017 31.299 17.776 38.573 17.33 38.702 10.149 35.28 9.735 35.082 9.388 34.745 8.633 34.202 11.698 26.747 14.769 19.275 18.299 10.689 16.358 11.265 15.009 11.309 14.148 11.979 8.915 16.057 3.537 20.003-1.293 24.526-6.066 28.996-10.875 28.381-16.202 25.374-18.096 24.305-18.633 23.124-17.994 21.054-15.094 11.652-12.375 2.193-9.326-7.159-8.961-8.279-6.886-9.692-5.783-9.552-3.073-9.208-.467-8.037 2.405-7.127 1.536-4.541 .862-2.535 0 0" fill="#2b2b2b"/>
<path transform="matrix(1,0,0,-1,444.155,424.6289)" d="M0 0C-.456 5.735-3.447 9.062-9.011 8.71-14.527 8.361-19.988 7.077-25.459 6.122-27.714 5.728-30.281 5.597-30.884 8.005-31.242 9.434-29.718 11.482-28.717 13.043-28.198 13.853-27.028 14.339-26.059 14.75-22.906 16.088-19.668 17.233-16.558 18.66-15.689 19.058-14.579 20.189-14.602 20.954-14.63 21.878-15.567 23.058-16.439 23.591-17.25 24.086-18.554 24.153-19.535 23.934-27.714 22.101-34.993 18.604-40.182 11.759-42.173 9.133-43.165 6.139-41.546 2.789-39.427-1.594-35.925-3.254-29.886-2.294-26.022-1.681-22.221-.67-18.354-.085-15.992 .273-12.981 1.25-11.833-1.898-10.741-4.895-12.891-7.14-15.292-8.171-19.569-10.008-24.038-11.569-28.577-12.557-30.778-13.037-32.12-13.45-32.292-15.766-32.481-18.303-30.866-19.484-28.768-19.08-24.295-18.218-19.65-17.476-15.547-15.634-8.714-12.567-2.239-8.688 0 0M-26.543 9.433C-21.421 10.332-16.298 11.225-11.177 12.131-7.015 12.868-.17 10.154 1.663 7.027 4.239 2.633 4.006-2.909 .718-7.032-6.818-16.479-16.522-22.142-28.749-22.428-30.836-22.477-34.073-20.557-34.809-18.746-35.652-16.672-34.575-13.609-33.737-11.181-33.464-10.389-31.34-10.195-30.039-9.806-26.11-8.628-22.142-7.574-18.253-6.278-17.241-5.941-16.464-4.898-15.579-4.18-15.682-3.869-15.785-3.559-15.888-3.248-19.381-3.839-22.859-4.538-26.369-4.994-30.802-5.569-35.244-6.364-39.565-4.15-44.802-1.467-47.298 5.912-44.593 11.096-41.113 17.764-35.256 21.708-28.599 24.413-24.959 25.893-20.966 26.722-17.052 27.24-14.039 27.639-11.864 25.294-11.631 22.406-11.171 16.708-11.694 16.406-15.902 15.1-19.629 13.943-23.058 11.825-26.819 9.855-27.174 9.461-27.328 9.344-27.482 9.227-27.169 9.296-26.856 9.364-26.543 9.433" fill="#2b2b2b"/>
<path transform="matrix(1,0,0,-1,205.4332,449.0201)" d="M0 0C-7.075-5.279-9.55-15.659-5.269-23.283-1.048-30.799 6.385-32.919 14.207-33.923 18.9-34.525 23.795-35.175 28.044-32.366 29.068-31.689 29.218-29.691 29.769-28.3 28.48-27.973 27.059-27.125 25.924-27.411 21.375-28.559 16.997-28.367 12.616-26.769 6.558-24.559 3.689-19.639 4.669-13.02 5.686-6.146 9.853-1.837 16.348-1.957 20.618-2.036 24.868-3.225 29.558-3.987 31.668-1.576 31.283 .878 27.336 2.384 18.112 5.904 9.015 5.811 0 0M12.884-23.365C17.085-23.628 21.139-24.473 24.93-23.811 29.15-23.074 31.105-23.329 32.569-27.135 33.842-30.443 32.365-35.02 29.263-35.846 17.099-39.088 5.533-38.183-4.514-29.733-9.547-25.499-10.616-19.779-10.484-13.411-10.128 3.825 9.54 10.877 22.648 7.177 26.629 6.053 31.242 5.748 33.156 1.488 34.013-.422 33.807-3.408 32.9-5.354 31.864-7.579 29.61-8.818 26.599-7.377 24.313-6.283 21.682-5.708 19.142-5.385 13.948-4.724 9.859-6.841 8.619-10.657 7.041-15.513 7.461-20.334 12.884-23.365" fill="#2c2c2c"/>
<path transform="matrix(1,0,0,-1,188.5574,471.6902)" d="M0 0C-1.339 .14-2.704 .518-4.013 .38-9.452-.197-14.43 .958-18.85 4.162-23.203 7.317-24.317 11.816-22.529 18.217-21.208 22.948-17.422 26.183-12.705 26.727-7.904 27.28-3.599 25.993 .57 23.679 1.455 23.188 3.651 23.371 3.987 23.96 4.545 24.937 4.601 26.931 3.941 27.716 2.7 29.193 .944 30.477-.856 31.199-7.396 33.825-14.208 34.616-21.092 32.803-28.084 30.961-32.609 26.382-34.434 19.386-36.266 12.363-34.825 6.156-28.941 1.495-21.389-4.488-12.657-6.528-3.208-5.503-.543-5.214 1.13-3.587 0 0M2.472 18.878C-.76 20.268-3.641 21.954-6.732 23.05-12.891 25.234-17.994 22.382-19.911 16.009-21.535 10.61-19.004 6.48-12.617 4.888-9.57 4.128-6.299 3.724-3.18 3.929 .821 4.192 2.462 3.569 3.697-.13 4.705-3.15 3.301-6.63 .009-7.59-3.208-8.528-6.757-9.342-10.005-8.944-16.425-8.159-22.661-6.601-28.425-3.108-38.123 2.77-40.376 13.588-36.601 23.186-32.179 34.429-19.515 39.385-8.326 36.642-4.125 35.612 .336 34.461 3.864 32.131 10.325 27.864 9.616 22.549 2.472 18.878" fill="#2b2b2b"/>
<path transform="matrix(1,0,0,-1,63.0231,434.9137)" d="M0 0C1.502-1.096 2.44-.777 3.295 .939 4.813 3.988 6.566 6.92 8.173 9.816 12.255 8.721 14.638 6.674 14.96 2.449 15.156-.124 16.095-2.638 16.67-5.185 17.607-9.33 20.892-12.238 25.075-12.593 28.558-12.888 29.384-11.849 28.247-8.632 26.848-4.674 25.461-.711 23.965 3.546 25.79 3.671 26.958 3.789 28.128 3.825 32.276 3.953 35.505 5.637 37.307 9.476 39.083 13.257 38.613 16.977 36.086 20.208 29.798 28.251 20.869 32.018 11.431 34.724 10.528 34.983 8.64 33.706 7.995 32.658 3.649 25.593-.514 18.415-4.679 11.24-8.345 4.927-8.01 3.911-1.454 .631-1.137 .473-.785 .386 0 0M29.276-1.882C30.336-4.81 31.168-7.535 32.252-10.156 33.427-12.996 32.194-14.464 29.635-15.148 20.629-17.557 13.946-12.866 12.401-2.531 12.025-.015 11.428 2.468 10.933 4.966 10.518 5.054 10.104 5.141 9.69 5.229 8.597 3.287 7.35 1.414 6.442-.611 4.589-4.74 3.451-5.28-.643-3.276-2.96-2.141-5.314-.994-7.405 .494-10.748 2.872-11.498 5.857-9.472 9.495-5.398 16.812-.887 23.888 3.092 31.253 7.361 39.157 9.356 40.161 19.074 35.61 24.37 33.13 29.552 30.226 34.324 26.859 38.073 24.213 40.951 20.399 41.612 15.561 42.646 7.991 37.619 2.517 31.549 .818 30.383 .492 28.284 .797 29.276-1.882" fill="#2c2c2c"/>
<path transform="matrix(1,0,0,-1,104.8443,455.5161)" d="M0 0C3.441-1.913 5.99-.908 7.901 2.361 8.315 3.07 8.798 3.857 9.46 4.271 10.129 4.689 11.178 5.041 11.856 4.814 16.683 3.195 21.458 1.42 25.303 .036 26.514-3.709 26.686-7.535 28.686-9.509 30.718-11.514 34.553-11.692 38.304-12.898 37.534-.032 36.873 11.688 36.061 23.397 35.989 24.428 35.144 25.663 34.291 26.337 30.564 29.283 26.268 30.896 21.488 30.949 20.634 30.958 19.533 30.629 18.954 30.049 11.26 22.339 3.644 14.552-4.003 6.796-5.97 4.8-5.29 3.194-3.286 1.828-2.407 1.228-1.416 .794 0 0M11.565 1.001C10.658 .259 10.036-.452 9.365-1.113 7.767-2.689 6.846-5.394 3.75-4.504-.666-3.236-5.477-2.525-7.898 2.084-9.45 5.039-8.052 7.718-5.993 9.818 1.487 17.448 9.042 25.007 16.673 32.487 19.536 35.293 23.316 34.231 26.495 33.56 29.772 32.868 33.187 31.399 35.771 29.315 37.745 27.723 39.445 24.723 39.666 22.208 40.668 10.768 41.175-.72 41.615-12.2 41.652-13.164 40-14.871 38.908-15.084 33.834-16.074 29.151-14.398 25.277-11.32 23.955-10.27 23.665-7.503 23.54-5.481 23.417-3.488 22.798-2.459 20.917-1.904 17.862-1.002 14.854 .06 11.565 1.001" fill="#2b2b2b"/>
<path transform="matrix(1,0,0,-1,254.8901,447.7075)" d="M0 0C-7.11-2.942-11.06-8.205-11.682-15.91-12.34-24.062-8.917-29.935-1.556-33.338 7.093-37.335 15.875-37.076 24.617-33.517 31.492-30.718 35.673-25.706 36.031-18.208 36.4-10.47 33.124-4.224 26.312-.51 17.971 4.039 9.209 3.493 0 0M39.069-19.42C39.889-25.71 33.214-34.292 25.666-36.804 16.801-39.754 7.775-40.942-1.447-37.401-17.811-31.119-18.809-10.62-8.003-.906-4.072 2.628 .934 4.449 6.411 5.237 14.406 6.388 22.109 5.887 29.006 1.738 36.669-2.871 39.994-10.077 39.069-19.42" fill="#2b2b2b"/>
<path transform="matrix(1,0,0,-1,345.7865,450.35169)" d="M0 0C-2.339 5.53-6.144 9.519-12.029 11.21-21.375 13.897-30.214 12.406-38.211 7.123-44.5 2.968-47.638-3.144-46.672-10.842-45.666-18.868-41.085-23.919-33.274-26.041-26.212-27.96-19.469-26.87-12.765-24.227-1.32-19.714 2.715-12.504 0 0M-38.226 10.962C-25.979 17.21-14.186 18.578-3.328 10.189 2.746 5.497 4.503-1.099 4.228-8.652 4.003-14.819 1.08-19.397-3.355-22.871-7.58-26.179-12.448-28.486-18.068-29.162-23.475-29.813-28.669-30.646-34.18-29.239-42.075-27.223-47.251-21.998-49.156-14.147-50.75-7.576-49.987-1.604-46.086 3.686-44.056 6.438-40.991 8.427-38.226 10.962" fill="#2b2b2b"/>
<path transform="matrix(1,0,0,-1,370.61,456.38423)" d="M0 0C.768-2.27 1.442-4.276 2.311-6.863-.561-7.772-3.167-8.943-5.877-9.287-6.98-9.427-9.056-8.014-9.42-6.894-12.469 2.458-15.188 11.917-18.089 21.318-18.727 23.388-18.19 24.569-16.296 25.638-10.969 28.645-6.16 29.26-1.387 24.791 3.443 20.267 8.821 16.321 14.054 12.244 14.915 11.573 16.264 11.529 18.205 10.953 14.675 19.54 11.604 27.011 8.539 34.466 9.294 35.01 9.641 35.347 10.055 35.544 17.235 38.967 17.682 38.837 20.923 31.563 24.726 23.026 28.44 14.45 32.168 5.948 26.737-.464 19.035-1.344 12.762 3.744 7.705 7.844 2.79 12.122-2.305 16.173-3.085 16.793-4.502 16.612-6.065 16.875-3.854 10.725-1.974 5.495 0 0" fill="#f5f5f5"/>
<path transform="matrix(1,0,0,-1,444.0898,424.9191)" d="M0 0C-2.173-8.397-8.649-12.277-15.482-15.344-19.585-17.186-24.23-17.928-28.703-18.79-30.801-19.194-32.416-18.013-32.227-15.476-32.055-13.16-30.713-12.747-28.511-12.267-23.973-11.279-19.504-9.718-15.227-7.881-12.826-6.849-10.675-4.604-11.768-1.608-12.916 1.54-15.927 .563-18.288 .205-22.155-.38-25.957-1.39-29.821-2.004-35.86-2.963-39.362-1.304-41.481 3.08-43.1 6.43-42.108 9.423-40.117 12.049-34.928 18.894-27.648 22.392-19.469 24.224-18.489 24.444-17.185 24.376-16.374 23.881-15.502 23.348-14.565 22.168-14.537 21.244-14.514 20.479-15.623 19.348-16.492 18.95-19.603 17.523-22.841 16.378-25.994 15.04-26.963 14.629-28.132 14.143-28.651 13.334-29.653 11.772-31.177 9.724-30.819 8.295-30.216 5.888-27.649 6.019-25.394 6.412-19.923 7.367-14.462 8.652-8.946 9-3.382 9.352-.39 6.025 0 0" fill="#f4f4f4"/>
<path transform="matrix(1,0,0,-1,205.6336,448.84883)" d="M0 0C8.815 5.639 17.911 5.733 27.136 2.213 31.083 .707 31.467-1.748 29.358-4.158 24.668-3.396 20.418-2.207 16.148-2.128 9.653-2.008 5.485-6.318 4.468-13.192 3.489-19.81 6.357-24.731 12.415-26.94 16.796-28.538 21.175-28.73 25.724-27.582 26.859-27.296 28.28-28.144 29.569-28.471 29.017-29.862 28.867-31.86 27.844-32.537 23.595-35.347 18.699-34.697 14.007-34.094 6.185-33.091-1.248-30.971-5.469-23.454-9.75-15.831-7.275-5.45 0 0" fill="#f4f4f4"/>
<path transform="matrix(1,0,0,-1,188.6962,471.9488)" d="M0 0C.991-3.328-.682-4.956-3.347-5.245-12.796-6.269-21.527-4.229-29.08 1.753-34.963 6.414-36.405 12.621-34.573 19.645-32.748 26.641-28.223 31.22-21.231 33.061-14.347 34.875-7.535 34.084-.995 31.458 .805 30.735 2.561 29.451 3.802 27.975 4.463 27.189 4.406 25.196 3.848 24.219 3.512 23.629 1.316 23.446 .431 23.938-3.738 26.251-8.043 27.539-12.844 26.986-17.561 26.442-21.346 23.206-22.668 18.476-24.456 12.074-23.342 7.576-18.989 4.42-14.568 1.217-9.591 .062-4.152 .638-2.842 .777-1.478 .399 0 0" fill="#f3f3f3"/>
<path transform="matrix(1,0,0,-1,89.6449,415.1094)" d="M0 0C-2.443 1.804-4.781 3.791-7.397 5.295-8.144 5.725-10.27 5.129-10.779 4.356-12.619 1.561-14.041-1.51-15.72-4.663-12.83-6.044-10.337-7.405-7.715-8.436-5.469-9.319-3.176-9.563-1.165-7.535 .903-5.449 1.585-3.202 0 0M-26.846-19.671C-27.406-19.418-27.759-19.332-28.076-19.173-34.632-15.893-34.967-14.877-31.301-8.564-27.136-1.39-22.973 5.789-18.627 12.854-17.982 13.901-16.094 15.178-15.191 14.919-5.753 12.214 3.176 8.447 9.464 .404 11.991-2.828 12.461-6.547 10.686-10.328 8.883-14.167 5.654-15.851 1.506-15.979 .336-16.016-.832-16.133-2.657-16.258-1.161-20.515 .226-24.478 1.625-28.436 2.762-31.654 1.936-32.692-1.547-32.397-5.73-32.042-9.015-29.134-9.952-24.99-10.527-22.442-11.466-19.929-11.662-17.356-11.984-13.13-14.366-11.083-18.449-9.988-20.056-12.884-21.808-15.817-23.327-18.865-24.182-20.581-25.12-20.9-26.846-19.671" fill="#f5f5f5"/>
<path transform="matrix(1,0,0,-1,131.0616,449.4319)" d="M0 0C.257 .181 .736 .358 .739 .543 .823 5.385 .993 10.231 .839 15.067 .771 17.199-.939 17.273-2.121 16.032-5.57 12.411-8.82 8.6-12.531 4.433-8.104 2.826-4.356 1.466 0 0M-26.455-5.942C-27.633-5.291-28.625-4.856-29.504-4.257-31.507-2.89-32.187-1.284-30.22 .711-22.573 8.468-14.957 16.255-7.263 23.965-6.685 24.545-5.583 24.874-4.73 24.865 .051 24.812 4.346 23.199 8.073 20.253 8.927 19.579 9.772 18.344 9.843 17.313 10.655 5.604 11.317-6.116 12.087-18.982 8.335-17.777 4.5-17.598 2.469-15.593 .468-13.619 .296-9.793-.914-6.048-4.759-4.664-9.534-2.889-14.361-1.271-15.039-1.043-16.088-1.396-16.757-1.813-17.419-2.227-17.902-3.014-18.317-3.723-20.228-6.992-22.777-7.997-26.455-5.942" fill="#f4f4f4"/>
<path transform="matrix(1,0,0,-1,278.458,459.703)" d="M0 0C-2.311 6.338-6.048 8.746-12.737 8.208-18.726 7.727-22.736 4.147-23.6-2.071-24.331-7.323-23.673-12.499-18.884-15.762-14.408-18.812-9.408-18.629-4.703-16.143 .322-13.487 1.983-7.766 0 0M-23.318 12.116C-14.359 15.488-5.597 16.034 2.745 11.486 9.556 7.771 12.832 1.525 12.463-6.212 12.105-13.71 7.924-18.722 1.049-21.522-7.693-25.081-16.475-25.34-25.124-21.342-32.485-17.939-35.908-12.067-35.25-3.915-34.628 3.79-30.678 9.053-23.318 12.116" fill="#f5f5f5"/>
<path transform="matrix(1,0,0,-1,334.1277,452.5762)" d="M0 0C-2.707 7.765-11.584 10.652-18.564 6.038-23.794 2.581-25.3-4.34-22.322-11.152-20.521-15.269-17.545-17.851-12.954-18.2-2.195-19.018 3.733-11.021 0 0M11.756 1.954C14.374-10.28 10.339-17.489-1.107-22.002-7.81-24.646-14.553-25.735-21.615-23.817-29.426-21.695-34.007-16.644-35.014-8.617-35.979-.919-32.841 5.193-26.552 9.347-18.555 14.631-9.716 16.121-.37 13.435 5.515 11.743 9.32 7.755 11.756 1.954" fill="#f5f5f5"/>
<path transform="matrix(1,0,0,-1,85.9025,420.3103)" d="M0 0C1.301 2.933 .381 5.581-2.809 6.641-6.916 8.005-7.566 3.025-8.152 1.56-5.873 .92-3.681-1.102 0 0M3.885 4.958C5.328 1.998 4.646-.249 2.578-2.334 .566-4.362-1.726-4.118-3.972-3.235-6.595-2.204-9.088-.843-11.977 .538-10.299 3.69-8.877 6.762-7.036 9.557-6.527 10.33-4.402 10.926-3.654 10.496-1.039 8.992 1.299 7.005 3.885 4.958" fill="#2d2d2d"/>
<path transform="matrix(1,0,0,-1,123.5833,443.625)" d="M0 0C1.075-.789 3.508-1.098 5.204-1.898V5.057C3.703 3.424 1.254 1.481 0 0M7.174-5.754C3.122-4.341-.625-2.981-5.053-1.374-1.341 2.793 1.908 6.604 5.358 10.225 6.54 11.466 8.249 11.392 8.317 9.26 8.471 4.424 8.301-.422 8.217-5.264 8.214-5.449 7.735-5.626 7.174-5.754" fill="#2b2b2b"/>
<path transform="matrix(1,0,0,-1,265.5539,454.9595)" d="M0 0C-2.185-1.39-5.471-2.321-6.289-4.281-7.419-6.989-6.971-10.499-6.686-13.619-6.31-17.736-2.816-18.716 .451-19.375 4.006-20.092 7.233-18.82 9.114-15.774 13.537-8.611 9.004-.395 0 0M13.003-5.01C14.887-12.509 13.226-18.231 8.201-20.886 3.496-23.372-1.504-23.556-5.98-20.506-10.769-17.243-11.426-12.067-10.696-6.814-9.832-.597-5.822 2.983 .167 3.465 6.856 4.003 10.593 1.594 13.003-5.01" fill="#2d2d2d"/>
<path transform="matrix(1,0,0,-1,321.6974,447.9548)" d="M0 0C-6.114-1.281-8.55-4.707-7.702-10.833-6.881-16.762-3.576-19.919 1.52-19.262 7.905-18.439 10.813-16.59 10.194-8.768 9.792-3.685 6.002-.078 0 0M12.516-4.893C16.163-15.642 10.235-23.64-.524-22.821-5.115-22.472-8.091-19.89-9.892-15.773-12.87-8.962-11.364-2.041-6.134 1.417 .846 6.031 9.723 3.143 12.516-4.893" fill="#2d2d2d"/>
</g>
</g>
</svg>
